<?xml version="1.0" encoding="UTF-8"?>
<svg id="Ebene_3" data-name="Ebene 3" xmlns="http://www.w3.org/2000/svg" xmlns:xlink="http://www.w3.org/1999/xlink" viewBox="0 0 216.87 62.87">
  <defs>
    <linearGradient id="Unbenannter_Verlauf_94" data-name="Unbenannter Verlauf 94" x1="161.47" y1="31.37" x2="216.48" y2="31.37" gradientUnits="userSpaceOnUse">
      <stop offset="0" stop-color="#3a6297"/>
      <stop offset="1" stop-color="#329ebf"/>
    </linearGradient>
    <linearGradient id="Unbenannter_Verlauf_88" data-name="Unbenannter Verlauf 88" x1="161.34" y1="31.37" x2="216.61" y2="31.37" gradientUnits="userSpaceOnUse">
      <stop offset="0" stop-color="#3a6297"/>
      <stop offset="1" stop-color="#329ebf"/>
    </linearGradient>
  </defs>
  <path d="M166.67,15.82c-1.02,1.26-2.86,1.45-4.12.44-1.26-1.02-1.45-2.86-.44-4.12,5.31-6.57,12.78-10.36,20.56-11.18,7.78-.82,15.88,1.32,22.45,6.63,6.57,5.31,10.36,12.78,11.18,20.56.82,7.78-1.32,15.88-6.63,22.45-5.31,6.57-12.78,10.36-20.56,11.18-7.78.82-15.88-1.32-22.45-6.63-1.26-1.02-1.45-2.86-.44-4.12,1.02-1.26,2.86-1.45,4.12-.44,5.31,4.29,11.86,6.03,18.15,5.36,6.29-.67,12.33-3.73,16.63-9.04,4.29-5.31,6.03-11.86,5.36-18.15-.67-6.29-3.73-12.33-9.04-16.63-5.31-4.29-11.86-6.03-18.15-5.36-6.29.67-12.33,3.73-16.63,9.04Z" style="fill: url(#Unbenannter_Verlauf_94); stroke: url(#Unbenannter_Verlauf_88); stroke-miterlimit: 10; stroke-width: .25px;"/>
  <g>
    <path d="M3.41,25.94H0v-4.22h3.41v-2.3c0-5.71,2.83-8.16,7.68-8.16,1.25,0,2.16.14,3.22.43v4.42c-.86-.19-1.63-.24-2.3-.24-2.35,0-3.46.96-3.46,3.55v2.3h5.62v4.22h-5.62v21.55H3.41v-21.55ZM18.53,13.8c0-1.92,1.3-3.31,3.26-3.31s3.31,1.39,3.31,3.31-1.44,3.26-3.31,3.26c-1.97,0-3.26-1.39-3.26-3.26ZM19.25,21.58h5.14v25.68h-5.14v-25.68Z" style="fill: #253c59;"/>
    <path d="M32.61,25.8h-3.6v-4.22h3.6v-6.62h5.14v6.62h6v4.22h-6v13.49c0,2.59,1.25,3.74,3.65,3.74.77,0,1.58-.1,2.5-.24v4.56c-1.01.19-2.06.38-3.41.38-4.94,0-7.87-2.4-7.87-8.16v-13.78Z" style="fill: #253c59;"/>
    <path d="M50.43,25.8h-3.6v-4.22h3.6v-6.62h5.14v6.62h6v4.22h-6v13.49c0,2.59,1.25,3.74,3.65,3.74.77,0,1.58-.1,2.5-.24v4.56c-1.01.19-2.06.38-3.41.38-4.94,0-7.87-2.4-7.87-8.16v-13.78Z" style="fill: #253c59;"/>
    <path d="M65.63,13.8c0-1.92,1.3-3.31,3.26-3.31s3.31,1.39,3.31,3.31-1.44,3.26-3.31,3.26c-1.97,0-3.26-1.39-3.26-3.26ZM66.35,21.58h5.14v25.68h-5.14v-25.68Z" style="fill: #253c59;"/>
    <path d="M78.84,21.58h5.14v4.03h.1c1.73-2.78,4.13-4.51,8.4-4.51,6.14,0,8.4,3.41,8.4,9.36v16.8h-5.14v-15.41c0-4.18-1.34-6.34-4.99-6.34-4.13,0-6.77,2.74-6.77,7.06v14.69h-5.14v-25.68Z" style="fill: #253c59;"/>
    <path d="M131.08,21.58v4.08h-4.85c1.01,1.34,1.58,2.83,1.58,4.9,0,5.52-3.79,9.36-9.94,9.36-1.82,0-3.46-.38-4.8-1.06-.91.77-1.54,1.44-1.54,2.21,0,4.42,19.63-1.39,19.63,8.64,0,3.89-2.74,7.39-13.01,7.39-9.12,0-12.05-2.54-12.05-5.86,0-2.3,1.15-3.89,3.36-5.18-1.58-.72-2.64-1.82-2.64-3.7,0-2.16,1.44-3.89,3.74-5.04-1.73-1.63-2.74-3.98-2.74-6.82,0-5.62,3.89-9.41,9.98-9.41,1.25,0,2.4.19,3.5.48h9.74ZM112.55,46.97c-1.73,1.39-2.06,2.4-2.06,3.26,0,2.11,2.06,3.41,8.21,3.41,5.42,0,7.54-1.25,7.54-3.31,0-3.55-8.02-2.5-13.68-3.36ZM123.16,30.5c0-3.74-2.06-5.81-5.33-5.81s-5.23,2.06-5.23,5.81,2.02,5.81,5.23,5.81,5.33-2.06,5.33-5.81Z" style="fill: #253c59;"/>
    <path d="M136.17,11.73h5.14v35.52h-5.14V11.73Z" style="fill: #253c59;"/>
    <path d="M163.99,43.66h-.1c-1.73,2.4-4.66,4.08-8.93,4.08-5.47,0-8.11-3.07-8.11-6.82,0-7.39,7.49-7.54,12.77-8.45,3.84-.62,4.37-.91,4.37-2.74,0-2.69-1.78-4.56-5.28-4.56s-5.33,1.44-5.66,4.8h-4.94c.58-5.57,3.55-8.88,10.66-8.88s10.37,3.41,10.37,10.27v15.89h-5.14v-3.6ZM164.04,34.73c-5.28,1.39-12.05.96-12.05,5.38,0,2.26,1.92,3.7,4.56,3.7,4.37,0,7.49-2.64,7.49-6.82v-2.26Z" style="fill: #253c59;"/>
    <path d="M176.28,11.73h5.14v13.83h.1c1.68-2.64,4.03-4.46,8.26-4.46,7.25,0,10.94,5.62,10.94,13.3s-3.98,13.35-10.99,13.35c-4.08,0-6.53-1.82-8.21-4.61h-.1v4.13h-5.14V11.73ZM195.48,34.39c0-5.86-2.59-9.36-7.2-9.36s-6.91,3.55-6.91,9.46,2.16,9.31,6.96,9.31c4.37,0,7.15-3.36,7.15-9.41Z" style="fill: #253c59;"/>
  </g>
</svg>